# xmcd
#
# Track frame offsets: 
#        150
#        11707
#        22201
#        40448
#        51002
#        59345
#        67511
#        73894
#        79676
#        90728
#        102137
#        118999
#        129146
#        141706
#        154973
#
# Disc length: 2118 seconds
#
# Revision: 1
# Processed by: cddbd v1.5.2PL0 Copyright (c) Steve Scherf et al.
# Submitted via: ExactAudioCopy v0.99pb5
#
DISCID=d508440f
DTITLE=Annie M.G. Schmidt - De Lapjeskat
DYEAR=2002
DGENRE=kinderen
TTITLE0=De koningin van Lombardije
TTITLE1=De kat van ome Willem
TTITLE2=Wilt u een stekkie
TTITLE3=Op de step
TTITLE4=De lapjeskat
TTITLE5=De poedelman
TTITLE6=Beertje pippeloentje
TTITLE7=De koning gaat verhuizen
TTITLE8=De slaapwandelende vorst
TTITLE9=De heks van Sier-Con Fleks
TTITLE10=Het prinsesje Tierlantijn
TTITLE11=In de wei staan populieren
TTITLE12=Stekelvarkentje wiegelied
TTITLE13=Het kindje Kangoeroe
TTITLE14=Jazuster, nee zuster
EXTD=
EXTT0=
EXTT1=
EXTT2=
EXTT3=
EXTT4=
EXTT5=
EXTT6=
EXTT7=
EXTT8=
EXTT9=
EXTT10=
EXTT11=
EXTT12=
EXTT13=
EXTT14=
PLAYORDER=
